<svg width="128" height="128" viewBox="0 0 24 24" fill="none" xmlns="http://www.w3.org/2000/svg">
  <path fill-rule="evenodd" clip-rule="evenodd" 
        d="M17.8 2.8C18.2 2.1 18 1.2 17.3 0.8C16.6 0.4 15.7 0.6 15.3 1.3L13.9 3.6C12.7 3.3 11.3 3.3 10.1 3.6L8.7 1.3C8.3 0.6 7.4 0.4 6.7 0.8C6 1.2 5.8 2.1 6.2 2.8L7.5 5.0C4.2 6.1 2 9.0 2 12.5V14.5C2 17.5 4.5 20 7.5 20H16.5C19.5 20 22 17.5 22 14.5V12.5C22 9.0 19.8 6.1 16.5 5.0L17.8 2.8ZM7.5 14C8.32843 14 9 13.3284 9 12.5C9 11.6716 8.32843 11 7.5 11C6.67157 11 6 11.6716 6 12.5C6 13.3284 6.67157 14 7.5 14ZM16 7.5L13.5 12H15L13 16.5L18 11H15.5L16 7.5Z" 
        fill="currentColor"/>
</svg>